# xmcd
#
# Track frame offsets:
# 150
# 19279
# 38478
# 57304
# 72689
# 90441
# 106591
# 126104
# 141376
# 153722
# 169041
# 185745
# 203005
# 220712
# 242755
# 260441
#
# Disc length: 3717 seconds
#
#
# Revision: 0
# Processed by: cddbd v1.5.1PL2 Copyright (c) Steve Scherf et al.
# Submitted via: FreeRIP 2.945 
#
DISCID=e40e8310
DTITLE=Sertanejo Romantico 2005 - Sertanejo Romantico 2005
DYEAR=1900
DGENRE=
TTITLE0=01-Homem Carente - Rick and Renner
TTITLE1=02-Como Vai Você - Zezé Di Camargo and Luciano
TTITLE2=03-Desatino - Daniel
TTITLE3=04-Sol e Lua - Walter Porto and Renato
TTITLE4=05-Chorão as Rosas - Bruno and Marrone
TTITLE5=06-O Quê Que Há - Leonardo
TTITLE6=07-Meu Amor - Erick and Bruno
TTITLE7=08-To Mal - Rio Negro and Solimões
TTITLE8=09-Quantas Lembranças - Edson and Hudson
TTITLE9=10-Do Outro Lado da Cidade - Guilherme and Santiago
TTITLE10=11-Lagrima de Dor - Lucas and Rogério
TTITLE11=12-Pareço Um Menino - Leonardo
TTITLE12=13-Por Te Amar Demais - Bruno and Marrone
TTITLE13=14-De Volta Para o Futuro - Rick and Renner
TTITLE14=15-Acidente de Amor - Gino and Geno
TTITLE15=16-Eu e Meu Pai - Zezé Di Camargo and Luciano
EXTD=
EXTT0=
EXTT1=
EXTT2=
EXTT3=
EXTT4=
EXTT5=
EXTT6=
EXTT7=
EXTT8=
EXTT9=
EXTT10=
EXTT11=
EXTT12=
EXTT13=
EXTT14=
EXTT15=
PLAYORDER=
